<svg width="271" height="152" viewBox="0 0 271 152" fill="none" xmlns="http://www.w3.org/2000/svg">
<path d="M23.9978 35.5931H58.5313V46.9712H70.8229V58.6411H82.5292V93.6507H70.8229V105.612H59.1166V117.282H23.9978V105.612H11.7063V93.6507H0V58.6411H11.7063V46.9712H23.9978V35.5931Z" fill="black"/>
<path d="M58.5313 46.9712H23.9978V58.6411H11.7063V93.6507H23.9978V105.612H59.4093V93.6507H70.8229V58.6411H58.5313V46.9712Z" fill="#455B71"/>
<path d="M12.2916 116.99H70.5302V140.33H58.824V152H23.4125V140.33H12.2916V116.99Z" fill="#F8B0AB"/>
<path d="M70.8229 93.6507H59.4093V105.612H23.9978V93.6507H11.7063V81.9808H23.9978V93.6507H59.4093V81.9808H70.8229V93.6507Z" fill="#343D5A"/>
<path d="M58.824 58.6411H46.2397V71.1862H58.824V58.6411Z" fill="#EFFCF4"/>
<path d="M212.469 35.0096H247.002V46.3877H259.294V58.0576H271V93.0672H259.294V105.029H247.587V116.699H212.469V105.029H200.177V93.0672H188.471V58.0576H200.177V46.3877H212.469V35.0096Z" fill="black"/>
<path d="M247.002 46.3877H212.469V58.0576H200.177V93.0672H212.469V105.029H247.88V93.0672H259.294V58.0576H247.002V46.3877Z" fill="#455B71"/>
<path d="M200.762 116.407H259.001V139.747H247.295V151.417H211.883V139.747H200.762V116.407Z" fill="#F8B0AB"/>
<path d="M259.294 93.0672H247.88V105.029H212.469V93.0672H200.177V81.3973H212.469V93.0672H247.88V81.3973H259.294V93.0672Z" fill="#343D5A"/>
<path d="M247.295 58.0576H234.711V70.6027H247.295V58.0576Z" fill="#EFFCF4"/>
<path d="M47.4104 0H59.1166V11.6699H47.4104V0Z" fill="black"/>
<path d="M59.1166 11.6699H70.8229V23.3397H59.1166V11.6699Z" fill="black"/>
<path d="M70.8229 23.3397H82.5292V35.0096H70.8229V23.3397Z" fill="black"/>
<path d="M223.59 0H211.883V11.6699H223.59V0Z" fill="black"/>
<path d="M211.883 11.6699H200.177V23.3397H211.883V11.6699Z" fill="black"/>
<path d="M200.177 23.3397H188.471V35.0096H200.177V23.3397Z" fill="black"/>
<path d="M106.527 105.612H118.233V117.282H106.527V105.612Z" fill="black"/>
<path d="M153.352 105.612H165.058V117.282H153.352V105.612Z" fill="black"/>
<path d="M118.233 93.9424H153.352V105.612H118.233V93.9424Z" fill="black"/>
</svg>
