<svg width="270" height="152" viewBox="0 0 270 152" fill="none" xmlns="http://www.w3.org/2000/svg">
<path d="M23.4273 0H58.5683V11.6923H23.4273V0Z" fill="black"/>
<path d="M11.7137 11.6923H23.4273V23.3846H11.7137V11.6923Z" fill="black"/>
<path d="M58.5683 11.6923H70.282V23.3846H58.5683V11.6923Z" fill="black"/>
<path d="M70.282 23.3846H81.9957V35.0769H70.282V23.3846Z" fill="black"/>
<path d="M0 23.3846H11.7137V35.0769H0V23.3846Z" fill="black"/>
<path d="M211.432 0H246.573V11.6923H211.432V0Z" fill="black"/>
<path d="M199.718 11.6923H211.432V23.3846H199.718V11.6923Z" fill="black"/>
<path d="M246.573 11.6923H258.286V23.3846H246.573V11.6923Z" fill="black"/>
<path d="M258.286 23.3846H270V35.0769H258.286V23.3846Z" fill="black"/>
<path d="M188.004 23.3846H199.718V35.0769H188.004V23.3846Z" fill="black"/>
<path d="M11.7137 58.4615H70.282V81.8462H11.7137V58.4615Z" fill="#B32F21"/>
<path d="M23.4273 81.8462H58.5683V105.231H23.4273V81.8462Z" fill="#B32F21"/>
<path d="M35.141 105.231H46.8547V116.923H35.141V105.231Z" fill="black"/>
<path d="M46.8547 93.5385H58.5683V105.231H46.8547V93.5385Z" fill="black"/>
<path d="M58.5683 81.8462H70.282V93.5385H58.5683V81.8462Z" fill="black"/>
<path d="M70.282 58.4615H81.9957V81.8462H70.282V58.4615Z" fill="black"/>
<path d="M46.8547 58.4615V46.7692H70.282V58.4615H46.8547Z" fill="black"/>
<path d="M11.7137 58.4615V46.7692H35.141V58.4615H11.7137Z" fill="black"/>
<path d="M11.7137 81.8462H23.4273V93.5385H11.7137V81.8462Z" fill="black"/>
<path d="M0 58.4615H11.7137V81.8462H0V58.4615Z" fill="black"/>
<path d="M35.141 58.4615H46.8547V70.1538H35.141V58.4615Z" fill="black"/>
<path d="M23.4273 93.5385H35.141V105.231H23.4273V93.5385Z" fill="black"/>
<path d="M46.8547 70.1538H58.5683V81.8462H46.8547V70.1538Z" fill="#EE6284"/>
<path d="M23.4273 105.231H58.5683V152H23.4273V105.231Z" fill="#F8B0AB"/>
<path d="M11.7137 140.308V116.923H70.282V140.308H11.7137Z" fill="#F8B0AB"/>
<path d="M199.718 58.4615H258.286V81.8462H199.718V58.4615Z" fill="#B32F21"/>
<path d="M211.432 81.8462H246.573V105.231H211.432V81.8462Z" fill="#B32F21"/>
<path d="M223.145 105.231H234.859V116.923H223.145V105.231Z" fill="black"/>
<path d="M234.859 93.5385H246.573V105.231H234.859V93.5385Z" fill="black"/>
<path d="M246.573 81.8462H258.286V93.5385H246.573V81.8462Z" fill="black"/>
<path d="M258.286 58.4615H270V81.8462H258.286V58.4615Z" fill="black"/>
<path d="M234.859 58.4615V46.7692H258.286V58.4615H234.859Z" fill="black"/>
<path d="M199.718 58.4615V46.7692H223.145V58.4615H199.718Z" fill="black"/>
<path d="M199.718 81.8462H211.432V93.5385H199.718V81.8462Z" fill="black"/>
<path d="M188.004 58.4615H199.718V81.8462H188.004V58.4615Z" fill="black"/>
<path d="M223.145 58.4615H234.859V70.1538H223.145V58.4615Z" fill="black"/>
<path d="M211.432 93.5385H223.145V105.231H211.432V93.5385Z" fill="black"/>
<path d="M234.859 70.1538H246.573V81.8462H234.859V70.1538Z" fill="#EE6284"/>
<path d="M211.432 105.231H246.573V152H211.432V105.231Z" fill="#F8B0AB"/>
<path d="M199.718 140.308V116.923H258.286V140.308H199.718Z" fill="#F8B0AB"/>
<path d="M94.295 82.4308H106.009V105.815H94.295V82.4308Z" fill="black"/>
<path d="M164.577 82.4308H176.291V105.815H164.577V82.4308Z" fill="black"/>
<path d="M141.15 117.508V105.815H164.577V117.508H141.15Z" fill="black"/>
<path d="M106.009 117.508V105.815H129.436V117.508H106.009Z" fill="black"/>
<path d="M129.436 105.815V94.1231H141.15V105.815H129.436Z" fill="black"/>
</svg>
