<svg width="272" height="188" viewBox="0 0 272 188" fill="none" xmlns="http://www.w3.org/2000/svg">
<path d="M82.4774 0H70.7785V11.7134H82.4774V0Z" fill="black"/>
<path d="M70.7785 11.7134H59.0796V23.4268H70.7785V11.7134Z" fill="black"/>
<path d="M59.0796 23.4268H47.3806V35.1402H59.0796V23.4268Z" fill="black"/>
<path d="M189.523 0H201.221V11.7134H189.523V0Z" fill="black"/>
<path d="M201.221 11.7134H212.92V23.4268H201.221V11.7134Z" fill="black"/>
<path d="M212.92 23.4268H224.619V35.1402H212.92V23.4268Z" fill="black"/>
<path d="M107.045 129.433H165.54V164.573H107.045V129.433Z" fill="#EE6284"/>
<path d="M117.574 152.86H155.011V164.573H117.574V152.86Z" fill="#F0B5A6"/>
<path d="M23.9828 48.6106H58.4946V60.0312H70.7785V71.7445H82.4774V106.885H70.7785V118.891H59.372H23.9828H12.2839V106.885H0V71.7445H12.2839V60.0312H23.9828V48.6106Z" fill="black"/>
<path d="M58.4946 60.0312H23.9828V71.7445H12.2839V106.885H23.9828V118.891H59.372V106.885H70.7785V71.7445H58.4946V60.0312Z" fill="#455B71"/>
<path d="M70.7785 106.885H59.372V118.891H23.9828V106.885H12.2839V95.1713H23.9828V106.885H59.372V95.1713H70.7785V106.885Z" fill="#343D5A"/>
<path d="M58.7871 71.7445H46.2108V84.3364H58.7871V71.7445Z" fill="#EFFCF4"/>
<path d="M12.2839 107.178H70.7785V118.891H12.2839V107.178Z" fill="black"/>
<path d="M12.2839 118.891H70.7785V129.433H12.2839V118.891Z" fill="#41A0D9"/>
<path d="M12.2839 129.433H70.7785V188H12.2839V129.433Z" fill="#96DBE1"/>
<path d="M213.505 48.6106H248.017V60.0312H260.301V71.7445H272V106.885H260.301V118.891H248.895H213.505H201.806V106.885H189.523V71.7445H201.806V60.0312H213.505V48.6106Z" fill="black"/>
<path d="M248.017 60.0312H213.505V71.7445H201.806V106.885H213.505V118.891H248.895V106.885H260.301V71.7445H248.017V60.0312Z" fill="#455B71"/>
<path d="M260.301 106.885H248.895V118.891H213.505V106.885H201.806V95.1713H213.505V106.885H248.895V95.1713H260.301V106.885Z" fill="#343D5A"/>
<path d="M248.31 71.7445H235.733V84.3364H248.31V71.7445Z" fill="#EFFCF4"/>
<path d="M201.806 107.178H260.301V118.891H201.806V107.178Z" fill="black"/>
<path d="M201.806 118.891H260.301V129.433H201.806V118.891Z" fill="#41A0D9"/>
<path d="M201.806 129.433H260.301V188H201.806V129.433Z" fill="#96DBE1"/>
<path d="M107.045 117.72H165.54V129.433H107.045V117.72Z" fill="black"/>
<path d="M95.3462 129.433H107.045V176.287H95.3462V129.433Z" fill="black"/>
<path d="M165.54 129.433H177.239V176.287H165.54V129.433Z" fill="black"/>
<path d="M107.045 176.287V164.573H165.54V176.287H107.045Z" fill="black"/>
</svg>
