<svg width="271" height="152" viewBox="0 0 271 152" fill="none" xmlns="http://www.w3.org/2000/svg">
<path d="M212.469 35.0769H247.002V46.4769H259.294V58.1692H271V93.2462H259.294V105.231H247.587V116.923H212.469V105.231H200.177V93.2462H188.471V58.1692H200.177V46.4769H212.469V35.0769Z" fill="black"/>
<path d="M247.002 46.4769H212.469V58.1692H200.177V93.2462H212.469V105.231H247.88V93.2462H259.294V58.1692H247.002V46.4769Z" fill="#455B71"/>
<path d="M200.762 116.631H259.001V140.015H247.295V151.708H211.883V140.015H200.762V116.631Z" fill="#F8B0AB"/>
<path d="M259.294 93.2462H247.88V105.231H212.469V93.2462H200.177V81.5538H212.469V93.2462H247.88V81.5538H259.294V93.2462Z" fill="#343D5A"/>
<path d="M247.295 58.1692H234.711V70.7385H247.295V58.1692Z" fill="#EFFCF4"/>
<path d="M11.7063 116.923H69.9449V140.308H58.2387V152H22.8272V140.308H11.7063V116.923Z" fill="#F8B0AB"/>
<path d="M153.352 93.5385H165.058V116.923H153.352V93.5385Z" fill="black"/>
<path d="M105.942 93.5385H117.648V116.923H105.942V93.5385Z" fill="black"/>
<path d="M153.28 116.923V128.615H117.648L117.648 116.923H153.28Z" fill="black"/>
<path d="M200.762 0H259.294V11.6923H200.762V0Z" fill="black"/>
<path d="M189.056 11.6923H200.762V23.3846H189.056V11.6923Z" fill="black"/>
<path d="M259.294 11.6923H271V23.3846H259.294V11.6923Z" fill="black"/>
<path d="M11.7063 0H70.2376V11.6923H11.7063V0Z" fill="black"/>
<path d="M0 11.6923H11.7063V23.3846H0V11.6923Z" fill="black"/>
<path d="M70.2376 11.6923H81.9438V23.3846H70.2376V11.6923Z" fill="black"/>
<path d="M0 70.7385H81.9438V82.4308H0V70.7385Z" fill="black"/>
</svg>
